<?xml version="1.0" encoding="utf-8"?>
<!-- Generator: Adobe Illustrator 27.0.1, SVG Export Plug-In . SVG Version: 6.00 Build 0)  -->
<svg version="1.1" xmlns="http://www.w3.org/2000/svg" xmlns:xlink="http://www.w3.org/1999/xlink" x="0px" y="0px"
	 viewBox="0 0 708.66 182.52" style="enable-background:new 0 0 708.66 182.52;" xml:space="preserve">
<style type="text/css">
	.st0{fill:none;}
	.st1{fill:#EC6608;}
</style>
<g id="bounding_box">
	<rect class="st0" width="708.66" height="182.52"/>
</g>
<g id="Logo">
	<g>
		<g>
			<path class="st1" d="M340.16,91.21c0-4.92-0.75-9.49-2.24-13.69c-1.5-4.2-3.69-7.87-6.58-11.01c-2.89-3.14-6.46-5.58-10.71-7.32
				c-3.52-1.44-7.51-2.25-11.91-2.5l-5.98,5.98h3.16c5.05,0,9.17,1.23,12.37,3.69c3.2,2.46,5.56,5.84,7.09,10.13
				c1.52,4.29,2.28,9.2,2.28,14.7s-0.7,10.41-2.1,14.7c-1.4,4.29-3.69,7.67-6.86,10.13c-3.17,2.46-7.43,3.69-12.79,3.69h-12.1
				c-0.8,0-1.33-0.08-1.59-0.26c-0.26-0.17-0.39-0.64-0.39-1.41V73.59L281.2,84.21v33.63c0,0.71-0.06,1.2-0.18,1.48
				c-0.12,0.28-0.54,0.42-1.25,0.42h-7.06c-0.71,0-1.16,0.11-1.36,0.32c-0.2,0.22-0.3,0.69-0.3,1.43v2.77
				c0,0.68,0.11,1.11,0.34,1.29c0.23,0.18,0.68,0.28,1.36,0.28H306c5.29,0,10.04-0.87,14.24-2.61c4.2-1.74,7.79-4.18,10.76-7.32
				c2.97-3.14,5.24-6.81,6.81-11.01C339.37,100.69,340.16,96.13,340.16,91.21"/>
		</g>
		<polygon points="97.88,56.72 97.88,83.8 71.06,83.8 71.06,56.72 56.69,56.72 56.69,125.83 71.06,125.83 71.06,96 97.88,96 
			97.88,125.83 112.2,125.83 112.2,56.72 		"/>
		<polygon points="120.82,56.72 120.82,68.91 139.21,68.91 139.21,125.83 153.58,125.83 153.58,68.91 171.97,68.91 171.97,56.72 		
			"/>
		<polygon points="257.22,56.72 245.26,107.59 232.29,56.72 218.71,56.72 205.69,107.59 193.74,56.72 179.61,56.72 196.89,125.83 
			213.2,125.83 225.43,77.32 237.73,125.74 259.58,103.89 271.35,56.72 		"/>
	</g>
	<g>
		<polygon points="371.77,64.13 379.16,64.13 379.16,70.75 380.79,70.75 380.79,56.69 379.16,56.69 379.16,62.68 371.77,62.68 
			371.77,56.69 370.14,56.69 370.14,70.75 371.77,70.75 		"/>
		<path d="M391.82,60.66c-0.72-0.43-1.56-0.64-2.52-0.64c-1.01,0-1.87,0.21-2.6,0.64c-0.73,0.43-1.29,1.05-1.68,1.86
			c-0.39,0.81-0.59,1.79-0.59,2.95c0,0.87,0.12,1.64,0.35,2.32c0.23,0.68,0.56,1.25,0.99,1.72c0.43,0.47,0.93,0.83,1.52,1.07
			c0.59,0.25,1.23,0.37,1.94,0.37c0.76,0,1.43-0.12,2.03-0.37c0.6-0.25,1.11-0.6,1.53-1.07c0.42-0.47,0.75-1.04,0.97-1.72
			c0.22-0.68,0.34-1.45,0.34-2.32c0-1.15-0.2-2.13-0.6-2.94C393.1,61.71,392.54,61.09,391.82,60.66z M392.11,67.66
			c-0.22,0.62-0.57,1.1-1.04,1.44c-0.47,0.34-1.07,0.51-1.8,0.51c-0.74,0-1.34-0.17-1.81-0.51c-0.47-0.34-0.81-0.82-1.04-1.44
			c-0.22-0.62-0.34-1.36-0.34-2.2c0-1.28,0.26-2.29,0.76-3.01c0.51-0.72,1.31-1.09,2.41-1.09c0.74,0,1.35,0.17,1.82,0.5
			c0.47,0.33,0.81,0.81,1.04,1.42c0.22,0.61,0.34,1.34,0.34,2.18C392.45,66.31,392.34,67.04,392.11,67.66z"/>
		<path d="M399.17,70.36c0.72,0.39,1.56,0.59,2.51,0.59c0.6,0,1.11-0.05,1.54-0.14c0.43-0.1,0.83-0.23,1.18-0.41v-1.42
			c-0.37,0.16-0.77,0.3-1.22,0.42c-0.45,0.12-0.95,0.18-1.51,0.18c-0.7,0-1.28-0.16-1.75-0.48c-0.46-0.32-0.81-0.78-1.05-1.38
			c-0.23-0.6-0.35-1.33-0.35-2.18c0-0.89,0.12-1.64,0.36-2.25c0.24-0.61,0.6-1.07,1.09-1.38c0.48-0.31,1.09-0.47,1.82-0.47
			c0.37,0,0.76,0.05,1.18,0.15c0.42,0.1,0.79,0.22,1.11,0.35l0.48-1.34c-0.31-0.16-0.72-0.29-1.21-0.4c-0.49-0.11-1-0.16-1.52-0.16
			c-0.96,0-1.81,0.2-2.56,0.59c-0.75,0.39-1.34,0.99-1.76,1.8c-0.43,0.81-0.64,1.85-0.64,3.13c0,1.22,0.2,2.23,0.61,3.03
			C397.88,69.37,398.45,69.97,399.17,70.36z"/>
		<path d="M409.09,65.24c0-0.83,0.1-1.54,0.3-2.12s0.53-1.01,1-1.31c0.46-0.3,1.09-0.45,1.87-0.45c0.83,0,1.44,0.22,1.84,0.65
			c0.4,0.44,0.6,1.09,0.6,1.97v6.76h1.58v-6.87c0-0.9-0.14-1.63-0.43-2.19c-0.29-0.56-0.71-0.98-1.28-1.25
			c-0.57-0.27-1.27-0.4-2.12-0.4c-0.48,0-0.94,0.07-1.37,0.2c-0.43,0.13-0.81,0.32-1.15,0.58c-0.34,0.25-0.61,0.57-0.83,0.94H409
			c0.03-0.22,0.05-0.46,0.07-0.72c0.01-0.26,0.02-0.52,0.02-0.77v-4.47h-1.6v14.96h1.6V65.24z"/>
		<path d="M422.8,70.94c0.87,0,1.61-0.12,2.24-0.35c0.62-0.23,1.11-0.58,1.44-1.03c0.34-0.46,0.5-1.02,0.5-1.7
			c0-0.58-0.13-1.05-0.39-1.42c-0.26-0.37-0.63-0.68-1.11-0.94c-0.48-0.26-1.05-0.51-1.71-0.75c-0.66-0.25-1.19-0.47-1.6-0.65
			c-0.4-0.19-0.7-0.38-0.88-0.6c-0.18-0.21-0.27-0.48-0.27-0.81c0-0.42,0.2-0.76,0.59-1c0.39-0.24,0.96-0.36,1.7-0.36
			c0.51,0,1.02,0.06,1.51,0.19c0.49,0.13,0.96,0.29,1.39,0.47l0.54-1.28c-0.48-0.21-1-0.38-1.55-0.5c-0.55-0.13-1.15-0.19-1.78-0.19
			c-1.17,0-2.12,0.24-2.84,0.72c-0.72,0.48-1.08,1.16-1.08,2.05c0,0.58,0.13,1.06,0.4,1.42c0.27,0.36,0.64,0.67,1.13,0.93
			c0.49,0.25,1.07,0.51,1.75,0.76c0.68,0.25,1.21,0.48,1.6,0.69c0.38,0.21,0.66,0.42,0.82,0.64c0.16,0.22,0.25,0.48,0.25,0.76
			c0,0.51-0.21,0.91-0.62,1.2c-0.41,0.29-1.07,0.44-1.98,0.44c-0.62,0-1.23-0.09-1.83-0.26c-0.6-0.17-1.11-0.36-1.54-0.58v1.47
			c0.4,0.21,0.88,0.37,1.41,0.49C421.43,70.89,422.07,70.94,422.8,70.94z"/>
		<path d="M431.86,70.36c0.72,0.39,1.56,0.59,2.51,0.59c0.6,0,1.11-0.05,1.54-0.14c0.43-0.1,0.83-0.23,1.18-0.41v-1.42
			c-0.37,0.16-0.77,0.3-1.22,0.42c-0.45,0.12-0.95,0.18-1.51,0.18c-0.7,0-1.28-0.16-1.75-0.48c-0.46-0.32-0.81-0.78-1.05-1.38
			c-0.23-0.6-0.35-1.33-0.35-2.18c0-0.89,0.12-1.64,0.36-2.25c0.24-0.61,0.6-1.07,1.09-1.38c0.48-0.31,1.09-0.47,1.82-0.47
			c0.37,0,0.76,0.05,1.18,0.15c0.42,0.1,0.79,0.22,1.11,0.35l0.48-1.34c-0.31-0.16-0.72-0.29-1.21-0.4c-0.49-0.11-1-0.16-1.52-0.16
			c-0.96,0-1.81,0.2-2.56,0.59c-0.75,0.39-1.34,0.99-1.76,1.8c-0.43,0.81-0.64,1.85-0.64,3.13c0,1.22,0.2,2.23,0.61,3.03
			C430.57,69.37,431.14,69.97,431.86,70.36z"/>
		<path d="M443.08,61.81c0.46-0.3,1.09-0.45,1.87-0.45c0.83,0,1.44,0.22,1.84,0.65c0.4,0.44,0.6,1.09,0.6,1.97v6.76h1.58v-6.87
			c0-0.9-0.14-1.63-0.43-2.19c-0.29-0.56-0.71-0.98-1.28-1.25c-0.57-0.27-1.27-0.4-2.12-0.4c-0.48,0-0.94,0.07-1.37,0.2
			c-0.43,0.13-0.81,0.32-1.15,0.58c-0.34,0.25-0.61,0.57-0.83,0.94h-0.11c0.03-0.22,0.05-0.46,0.07-0.72
			c0.01-0.26,0.02-0.52,0.02-0.77v-4.47h-1.6v14.96h1.6v-5.51c0-0.83,0.1-1.54,0.3-2.12S442.62,62.11,443.08,61.81z"/>
		<path d="M454.44,70.54c0.56,0.27,1.26,0.4,2.1,0.4c0.49,0,0.95-0.06,1.38-0.19c0.43-0.13,0.82-0.31,1.17-0.56
			c0.35-0.25,0.63-0.56,0.85-0.92h0.09l0.23,1.48h1.31V60.21h-1.61v5.55c0,0.83-0.1,1.54-0.31,2.11c-0.21,0.57-0.54,1.01-1,1.3
			c-0.47,0.3-1.09,0.44-1.87,0.44c-0.81,0-1.42-0.22-1.82-0.65c-0.4-0.43-0.6-1.09-0.6-1.97v-6.79h-1.62v6.9
			c0,0.88,0.14,1.61,0.43,2.17C453.46,69.85,453.88,70.27,454.44,70.54z"/>
		<rect x="465.53" y="55.79" width="1.61" height="14.96"/>
		<path d="M472.9,70.32c0.75,0.41,1.64,0.62,2.65,0.62c0.71,0,1.33-0.05,1.85-0.16c0.52-0.11,1.05-0.28,1.58-0.52v-1.4
			c-0.55,0.24-1.08,0.42-1.6,0.54c-0.51,0.12-1.1,0.18-1.77,0.18c-1.08,0-1.92-0.32-2.52-0.97c-0.6-0.65-0.9-1.59-0.92-2.83h7.28
			v-0.99c0-0.95-0.17-1.79-0.51-2.5c-0.34-0.71-0.83-1.27-1.47-1.67c-0.64-0.4-1.41-0.6-2.31-0.6c-0.94,0-1.76,0.22-2.46,0.67
			c-0.7,0.45-1.23,1.09-1.62,1.92c-0.38,0.83-0.57,1.81-0.57,2.95c0,1.16,0.21,2.14,0.62,2.94C471.56,69.3,472.14,69.91,472.9,70.32
			z M473.1,62.16c0.51-0.56,1.19-0.84,2.04-0.84c0.6,0,1.1,0.13,1.48,0.4c0.39,0.27,0.67,0.64,0.86,1.12
			c0.19,0.48,0.29,1.03,0.29,1.66h-5.58C472.3,63.5,472.6,62.72,473.1,62.16z"/>
		<path d="M488.54,70.75h1.6v-9.29h2.63v-1.25h-2.63v-0.77c0-0.84,0.15-1.46,0.44-1.85c0.29-0.39,0.74-0.59,1.35-0.59
			c0.28,0,0.56,0.03,0.83,0.09c0.27,0.06,0.52,0.13,0.74,0.2l0.41-1.26c-0.26-0.09-0.55-0.17-0.89-0.24
			c-0.34-0.07-0.71-0.11-1.11-0.11c-0.72,0-1.33,0.13-1.83,0.39c-0.5,0.26-0.88,0.67-1.14,1.23c-0.26,0.55-0.39,1.27-0.39,2.16v0.7
			l-1.87,0.53v0.77h1.87V70.75z"/>
		<path d="M496.87,70.54c0.56,0.27,1.26,0.4,2.1,0.4c0.49,0,0.95-0.06,1.38-0.19c0.43-0.13,0.82-0.31,1.17-0.56
			c0.35-0.25,0.63-0.56,0.85-0.92h0.09l0.23,1.48h1.31V60.21h-1.61v5.55c0,0.83-0.1,1.54-0.31,2.11c-0.21,0.57-0.54,1.01-1,1.3
			c-0.47,0.3-1.09,0.44-1.87,0.44c-0.81,0-1.42-0.22-1.82-0.65c-0.4-0.43-0.6-1.09-0.6-1.97v-6.79h-1.62v6.9
			c0,0.88,0.14,1.61,0.43,2.17C495.89,69.85,496.31,70.27,496.87,70.54z"/>
		<path d="M497.79,58.29c0.25,0,0.46-0.08,0.63-0.24c0.17-0.16,0.25-0.39,0.25-0.71c0-0.32-0.09-0.55-0.25-0.7
			c-0.17-0.15-0.38-0.22-0.63-0.22c-0.24,0-0.45,0.07-0.62,0.22c-0.17,0.15-0.25,0.38-0.25,0.7c0,0.31,0.08,0.55,0.25,0.71
			C497.34,58.21,497.54,58.29,497.79,58.29z"/>
		<path d="M501.47,58.29c0.24,0,0.45-0.08,0.62-0.24c0.17-0.16,0.26-0.39,0.26-0.71c0-0.32-0.09-0.55-0.26-0.7
			c-0.17-0.15-0.38-0.22-0.62-0.22c-0.24,0-0.44,0.07-0.61,0.22c-0.17,0.15-0.25,0.38-0.25,0.7c0,0.31,0.08,0.55,0.25,0.71
			C501.03,58.21,501.23,58.29,501.47,58.29z"/>
		<path d="M509.57,65.1c0-0.54,0.08-1.04,0.24-1.49c0.16-0.45,0.38-0.83,0.66-1.14c0.28-0.32,0.61-0.56,0.99-0.73
			c0.37-0.17,0.77-0.26,1.2-0.26c0.19,0,0.39,0.01,0.6,0.04c0.21,0.03,0.4,0.06,0.58,0.11l0.2-1.48c-0.18-0.04-0.39-0.07-0.62-0.09
			c-0.23-0.02-0.45-0.03-0.66-0.03c-0.5,0-0.95,0.1-1.36,0.29c-0.41,0.19-0.76,0.45-1.07,0.77c-0.31,0.32-0.57,0.68-0.79,1.07h-0.07
			l-0.17-1.94h-1.33v10.54h1.61V65.1z"/>
		<polygon points="520.4,58.14 524.83,58.14 524.83,70.75 526.47,70.75 526.47,58.14 530.88,58.14 530.88,56.69 520.4,56.69 		"/>
		<path d="M539.72,60.62c-0.64-0.4-1.41-0.6-2.31-0.6c-0.94,0-1.76,0.22-2.46,0.67s-1.23,1.09-1.62,1.92
			c-0.38,0.83-0.57,1.81-0.57,2.95c0,1.16,0.21,2.14,0.62,2.94c0.42,0.8,1,1.41,1.76,1.82c0.75,0.41,1.64,0.62,2.65,0.62
			c0.71,0,1.33-0.05,1.85-0.16c0.52-0.11,1.05-0.28,1.58-0.52v-1.4c-0.55,0.24-1.08,0.42-1.6,0.54c-0.51,0.12-1.1,0.18-1.77,0.18
			c-1.08,0-1.92-0.32-2.52-0.97c-0.6-0.65-0.9-1.59-0.92-2.83h7.28v-0.99c0-0.95-0.17-1.79-0.51-2.5
			C540.86,61.57,540.37,61.01,539.72,60.62z M534.46,64.5c0.1-1,0.4-1.78,0.9-2.34c0.51-0.56,1.19-0.84,2.04-0.84
			c0.6,0,1.1,0.13,1.48,0.4c0.39,0.27,0.67,0.64,0.86,1.12c0.19,0.48,0.29,1.03,0.29,1.66H534.46z"/>
		<path d="M546.73,70.36c0.72,0.39,1.56,0.59,2.51,0.59c0.6,0,1.11-0.05,1.54-0.14c0.43-0.1,0.83-0.23,1.18-0.41v-1.42
			c-0.36,0.16-0.77,0.3-1.22,0.42c-0.45,0.12-0.95,0.18-1.51,0.18c-0.7,0-1.28-0.16-1.75-0.48c-0.47-0.32-0.81-0.78-1.05-1.38
			c-0.23-0.6-0.35-1.33-0.35-2.18c0-0.89,0.12-1.64,0.36-2.25c0.24-0.61,0.6-1.07,1.09-1.38s1.09-0.47,1.82-0.47
			c0.37,0,0.76,0.05,1.18,0.15c0.42,0.1,0.79,0.22,1.11,0.35l0.48-1.34c-0.31-0.16-0.72-0.29-1.21-0.4c-0.49-0.11-1-0.16-1.52-0.16
			c-0.95,0-1.81,0.2-2.56,0.59c-0.75,0.39-1.34,0.99-1.76,1.8c-0.43,0.81-0.64,1.85-0.64,3.13c0,1.22,0.2,2.23,0.61,3.03
			C545.44,69.37,546,69.97,546.73,70.36z"/>
		<path d="M556.64,65.24c0-0.83,0.1-1.54,0.3-2.12c0.2-0.58,0.54-1.01,1-1.31c0.46-0.3,1.09-0.45,1.87-0.45
			c0.83,0,1.44,0.22,1.84,0.65c0.4,0.44,0.6,1.09,0.6,1.97v6.76h1.58v-6.87c0-0.9-0.14-1.63-0.43-2.19
			c-0.29-0.56-0.71-0.98-1.28-1.25c-0.57-0.27-1.27-0.4-2.12-0.4c-0.48,0-0.94,0.07-1.37,0.2c-0.43,0.13-0.81,0.32-1.15,0.58
			c-0.34,0.25-0.61,0.57-0.83,0.94h-0.11c0.03-0.22,0.05-0.46,0.07-0.72c0.01-0.26,0.02-0.52,0.02-0.77v-4.47h-1.6v14.96h1.6V65.24z
			"/>
		<path d="M574.94,63.99v6.76h1.58v-6.87c0-1.35-0.32-2.33-0.96-2.95c-0.64-0.61-1.59-0.92-2.84-0.92c-0.47,0-0.93,0.07-1.36,0.2
			c-0.43,0.13-0.82,0.32-1.16,0.58c-0.35,0.25-0.63,0.57-0.86,0.94h-0.09l-0.24-1.52h-1.29v10.54h1.6v-5.52
			c0-1.26,0.24-2.21,0.71-2.88c0.47-0.66,1.29-0.99,2.46-0.99c0.83,0,1.44,0.22,1.84,0.65C574.73,62.46,574.94,63.11,574.94,63.99z"
			/>
		<rect x="580.4" y="60.21" width="1.6" height="10.54"/>
		<path d="M581.22,56.27c-0.28,0-0.5,0.09-0.69,0.25c-0.18,0.17-0.27,0.43-0.27,0.79c0,0.35,0.09,0.62,0.27,0.79
			c0.18,0.17,0.41,0.26,0.69,0.26c0.26,0,0.49-0.09,0.68-0.26c0.19-0.17,0.28-0.44,0.28-0.79c0-0.36-0.09-0.62-0.28-0.79
			C581.7,56.36,581.48,56.27,581.22,56.27z"/>
		<path d="M589.93,64.71l4.24-4.5h-1.88l-3.5,3.73c-0.18,0.2-0.4,0.46-0.66,0.79c-0.26,0.33-0.46,0.57-0.59,0.74h-0.07
			c0.01-0.28,0.03-0.61,0.05-0.98c0.02-0.37,0.03-0.68,0.03-0.94v-7.77h-1.59v14.96h1.59v-3.82l1.28-1.17l3.72,4.99h1.92
			L589.93,64.71z"/>
		<path d="M609.31,65.76c0,0.83-0.1,1.54-0.31,2.11c-0.21,0.57-0.54,1.01-1,1.3c-0.47,0.3-1.09,0.44-1.87,0.44
			c-0.81,0-1.42-0.22-1.82-0.65c-0.4-0.43-0.6-1.09-0.6-1.97v-6.79h-1.62v6.9c0,0.88,0.14,1.61,0.43,2.17
			c0.29,0.56,0.71,0.98,1.27,1.25c0.56,0.27,1.26,0.4,2.1,0.4c0.49,0,0.95-0.06,1.38-0.19c0.43-0.13,0.82-0.31,1.17-0.56
			c0.35-0.25,0.63-0.56,0.85-0.92h0.09l0.23,1.48h1.31V60.21h-1.61V65.76z"/>
		<path d="M623.68,70.75v-6.87c0-1.35-0.32-2.33-0.96-2.95c-0.64-0.61-1.59-0.92-2.84-0.92c-0.47,0-0.93,0.07-1.36,0.2
			c-0.43,0.13-0.82,0.32-1.16,0.58c-0.35,0.25-0.63,0.57-0.86,0.94h-0.09l-0.24-1.52h-1.29v10.54h1.6v-5.52
			c0-1.26,0.24-2.21,0.71-2.88c0.47-0.66,1.29-0.99,2.46-0.99c0.83,0,1.44,0.22,1.84,0.65c0.4,0.44,0.6,1.09,0.6,1.97v6.76H623.68z"
			/>
		<path d="M634.65,69.25h0.07l0.24,1.5h1.29V55.79h-1.6v4.22c0,0.22,0.01,0.5,0.04,0.85c0.03,0.35,0.05,0.62,0.08,0.82h-0.12
			c-0.21-0.31-0.46-0.59-0.76-0.84c-0.3-0.25-0.66-0.44-1.08-0.59c-0.42-0.15-0.9-0.22-1.46-0.22c-1.32,0-2.38,0.46-3.17,1.39
			c-0.8,0.93-1.19,2.3-1.19,4.11c0,1.8,0.39,3.15,1.17,4.06s1.84,1.37,3.17,1.37c0.57,0,1.07-0.08,1.49-0.23
			c0.42-0.15,0.78-0.35,1.09-0.61C634.19,69.85,634.45,69.57,634.65,69.25z M631.57,69.62c-0.99,0-1.72-0.35-2.21-1.06
			c-0.48-0.71-0.73-1.71-0.73-3c0-1.3,0.24-2.33,0.73-3.08c0.49-0.75,1.22-1.13,2.2-1.13c1.17,0,1.98,0.36,2.43,1.08
			c0.45,0.72,0.67,1.75,0.67,3.09v0.29c0,1.26-0.23,2.21-0.7,2.86C633.5,69.3,632.7,69.62,631.57,69.62z"/>
		<path d="M384.4,84.14l-2.26,8.81c-0.1,0.4-0.2,0.79-0.28,1.17c-0.09,0.38-0.16,0.74-0.23,1.09c-0.06,0.35-0.12,0.68-0.16,0.99
			c-0.04-0.22-0.08-0.46-0.13-0.72c-0.05-0.25-0.1-0.52-0.16-0.8c-0.06-0.28-0.13-0.57-0.21-0.86c-0.08-0.3-0.16-0.59-0.25-0.89
			l-2.63-8.79h-1.68l-2.53,8.72c-0.08,0.29-0.16,0.58-0.24,0.87c-0.07,0.29-0.14,0.57-0.2,0.86c-0.06,0.28-0.12,0.56-0.17,0.83
			c-0.05,0.27-0.09,0.53-0.13,0.78c-0.04-0.24-0.08-0.49-0.13-0.75c-0.04-0.26-0.09-0.52-0.15-0.79c-0.05-0.27-0.12-0.55-0.18-0.83
			c-0.07-0.28-0.14-0.58-0.22-0.87l-2.26-8.82h-1.7l3.73,14.06h1.64l2.71-9.45c0.08-0.28,0.16-0.56,0.24-0.84
			c0.07-0.28,0.14-0.53,0.19-0.78c0.05-0.24,0.1-0.46,0.13-0.64c0.04-0.19,0.06-0.33,0.07-0.42c0.02,0.1,0.05,0.24,0.09,0.43
			c0.04,0.19,0.09,0.41,0.16,0.65c0.06,0.25,0.13,0.51,0.21,0.78c0.07,0.27,0.15,0.54,0.24,0.81l2.79,9.46h1.64l3.76-14.06H384.4z"
			/>
		<rect x="388.68" y="87.66" width="1.6" height="10.54"/>
		<path d="M390.18,83.97c-0.19-0.17-0.41-0.25-0.68-0.25c-0.28,0-0.51,0.09-0.69,0.25c-0.18,0.17-0.27,0.43-0.27,0.79
			c0,0.35,0.09,0.62,0.27,0.79s0.41,0.26,0.69,0.26c0.26,0,0.49-0.09,0.68-0.26s0.28-0.44,0.28-0.79
			C390.46,84.4,390.36,84.14,390.18,83.97z"/>
		<path d="M399.04,87.46c-0.5,0-0.95,0.1-1.36,0.29c-0.41,0.19-0.76,0.45-1.07,0.77c-0.31,0.32-0.57,0.68-0.79,1.07h-0.07
			l-0.17-1.94h-1.33V98.2h1.61v-5.65c0-0.54,0.08-1.04,0.24-1.49c0.16-0.45,0.38-0.83,0.66-1.14c0.28-0.32,0.61-0.56,0.99-0.73
			c0.37-0.17,0.77-0.26,1.2-0.26c0.19,0,0.38,0.01,0.6,0.04c0.21,0.03,0.4,0.06,0.58,0.11l0.2-1.48c-0.18-0.04-0.38-0.07-0.62-0.09
			C399.47,87.48,399.25,87.46,399.04,87.46z"/>
		<path d="M403.67,85.21l-0.63,2.29l-1.51,0.62v0.78h1.5v6.25c0,0.83,0.14,1.47,0.41,1.94c0.27,0.47,0.64,0.8,1.09,1
			c0.45,0.2,0.96,0.29,1.52,0.29c0.31,0,0.64-0.03,0.97-0.09c0.33-0.06,0.59-0.13,0.77-0.21v-1.24c-0.17,0.06-0.4,0.12-0.67,0.16
			c-0.28,0.04-0.54,0.07-0.81,0.07c-0.51,0-0.91-0.16-1.22-0.49c-0.3-0.33-0.46-0.82-0.46-1.48v-6.2h3.09v-1.25h-3.09v-2.44H403.67z
			"/>
		<path d="M415.38,98.04c0.62-0.23,1.11-0.58,1.44-1.03c0.34-0.46,0.5-1.02,0.5-1.7c0-0.58-0.13-1.05-0.39-1.42
			c-0.26-0.37-0.63-0.68-1.11-0.94c-0.48-0.26-1.05-0.51-1.71-0.75c-0.66-0.25-1.19-0.47-1.6-0.65c-0.4-0.19-0.7-0.38-0.88-0.6
			s-0.27-0.48-0.27-0.81c0-0.42,0.2-0.76,0.59-1c0.39-0.24,0.96-0.36,1.7-0.36c0.51,0,1.02,0.06,1.51,0.19
			c0.49,0.13,0.96,0.29,1.39,0.47l0.54-1.28c-0.48-0.21-1-0.38-1.55-0.5c-0.55-0.13-1.15-0.19-1.78-0.19
			c-1.17,0-2.12,0.24-2.84,0.72c-0.72,0.48-1.08,1.16-1.08,2.05c0,0.58,0.13,1.06,0.4,1.42c0.27,0.36,0.64,0.67,1.13,0.93
			c0.49,0.25,1.07,0.51,1.75,0.76c0.68,0.25,1.21,0.48,1.6,0.69c0.38,0.21,0.66,0.42,0.82,0.64c0.16,0.22,0.25,0.48,0.25,0.76
			c0,0.51-0.21,0.91-0.62,1.2c-0.41,0.29-1.07,0.44-1.98,0.44c-0.62,0-1.23-0.09-1.83-0.26c-0.6-0.17-1.11-0.36-1.54-0.58v1.47
			c0.4,0.21,0.88,0.37,1.41,0.49c0.54,0.12,1.18,0.17,1.91,0.17C414.01,98.39,414.76,98.27,415.38,98.04z"/>
		<path d="M426.26,98.24c0.43-0.1,0.83-0.23,1.18-0.41v-1.42c-0.37,0.16-0.77,0.3-1.22,0.42c-0.45,0.12-0.95,0.18-1.51,0.18
			c-0.7,0-1.28-0.16-1.75-0.48c-0.46-0.32-0.81-0.78-1.05-1.38c-0.23-0.6-0.35-1.33-0.35-2.18c0-0.89,0.12-1.64,0.36-2.25
			c0.24-0.61,0.6-1.07,1.09-1.38c0.48-0.31,1.09-0.47,1.82-0.47c0.37,0,0.76,0.05,1.18,0.15c0.42,0.1,0.79,0.22,1.11,0.35l0.48-1.34
			c-0.31-0.16-0.72-0.29-1.21-0.4c-0.49-0.11-1-0.16-1.52-0.16c-0.96,0-1.81,0.2-2.56,0.59c-0.75,0.39-1.34,0.99-1.76,1.8
			c-0.43,0.81-0.64,1.85-0.64,3.13c0,1.22,0.2,2.23,0.61,3.03c0.4,0.8,0.97,1.4,1.69,1.79c0.72,0.39,1.56,0.59,2.51,0.59
			C425.31,98.39,425.83,98.34,426.26,98.24z"/>
		<path d="M432.12,92.69c0-0.83,0.1-1.54,0.3-2.12s0.54-1.01,1-1.31c0.46-0.3,1.09-0.45,1.87-0.45c0.83,0,1.44,0.22,1.84,0.65
			c0.4,0.44,0.6,1.09,0.6,1.97v6.76h1.58v-6.87c0-0.9-0.14-1.63-0.43-2.19c-0.29-0.56-0.71-0.98-1.28-1.25
			c-0.57-0.27-1.27-0.4-2.12-0.4c-0.48,0-0.94,0.07-1.37,0.2c-0.43,0.13-0.81,0.32-1.15,0.58c-0.34,0.25-0.61,0.57-0.83,0.94h-0.11
			c0.03-0.22,0.05-0.46,0.07-0.72c0.01-0.26,0.02-0.52,0.02-0.77v-4.47h-1.6V98.2h1.6V92.69z"/>
		<path d="M448.39,97.6c0.32-0.26,0.63-0.58,0.92-0.97h0.08l0.31,1.56h1.16v-7.16c0-1.24-0.3-2.14-0.91-2.7
			c-0.61-0.56-1.54-0.85-2.8-0.85c-0.68,0-1.33,0.09-1.94,0.26c-0.62,0.17-1.16,0.38-1.63,0.62l0.49,1.21
			c0.45-0.22,0.92-0.41,1.42-0.57c0.5-0.16,1.03-0.24,1.58-0.24c0.71,0,1.26,0.18,1.65,0.55c0.39,0.37,0.59,1,0.59,1.91v0.64
			l-1.82,0.08c-1.71,0.05-2.97,0.36-3.81,0.92c-0.83,0.56-1.25,1.37-1.25,2.42c0,0.7,0.14,1.28,0.43,1.73
			c0.28,0.45,0.68,0.79,1.17,1.02c0.5,0.22,1.07,0.34,1.71,0.34c0.61,0,1.12-0.07,1.54-0.2C447.7,98.06,448.07,97.86,448.39,97.6z
			 M444.64,96.66c-0.37-0.29-0.55-0.73-0.55-1.34c0-0.69,0.27-1.23,0.81-1.61c0.54-0.38,1.46-0.59,2.78-0.64l1.61-0.07v0.97
			c0,1.04-0.3,1.82-0.89,2.34c-0.6,0.52-1.36,0.78-2.3,0.78C445.49,97.09,445,96.95,444.64,96.66z"/>
		<path d="M455.22,98.2h1.6v-9.29h2.63v-1.25h-2.63v-0.77c0-0.84,0.15-1.46,0.44-1.85c0.29-0.39,0.74-0.59,1.35-0.59
			c0.28,0,0.56,0.03,0.83,0.09c0.27,0.06,0.52,0.13,0.74,0.2l0.41-1.26c-0.26-0.09-0.55-0.17-0.89-0.24
			c-0.34-0.07-0.71-0.11-1.11-0.11c-0.72,0-1.33,0.13-1.83,0.39c-0.5,0.26-0.88,0.67-1.14,1.23c-0.26,0.55-0.39,1.27-0.39,2.16v0.7
			l-1.87,0.53v0.77h1.87V98.2z"/>
		<path d="M465.37,97.08c-0.51,0-0.91-0.16-1.22-0.49c-0.3-0.33-0.46-0.82-0.46-1.48v-6.2h3.09v-1.25h-3.09v-2.44h-0.96l-0.63,2.29
			l-1.51,0.62v0.78h1.5v6.25c0,0.83,0.14,1.47,0.41,1.94c0.27,0.47,0.64,0.8,1.09,1c0.45,0.2,0.96,0.29,1.52,0.29
			c0.31,0,0.64-0.03,0.97-0.09c0.33-0.06,0.59-0.13,0.77-0.21v-1.24c-0.17,0.06-0.4,0.12-0.67,0.16
			C465.9,97.06,465.63,97.08,465.37,97.08z"/>
		<path d="M475.13,84.14V98.2h3.82c1.56,0,2.88-0.27,3.98-0.8c1.09-0.54,1.93-1.33,2.5-2.39c0.58-1.06,0.87-2.38,0.87-3.97
			c0-1.51-0.28-2.77-0.84-3.79c-0.56-1.02-1.36-1.8-2.39-2.32c-1.03-0.52-2.26-0.78-3.69-0.78H475.13z M483.94,87.96
			c0.42,0.82,0.63,1.86,0.63,3.12c0,1.89-0.49,3.31-1.46,4.27c-0.97,0.96-2.42,1.43-4.36,1.43h-1.99V85.53h2.36
			c1.17,0,2.16,0.2,2.98,0.6C482.91,86.53,483.52,87.14,483.94,87.96z"/>
		<path d="M495.07,88.96c0.21,0.03,0.4,0.06,0.58,0.11l0.2-1.48c-0.18-0.04-0.38-0.07-0.62-0.09c-0.23-0.02-0.45-0.03-0.66-0.03
			c-0.5,0-0.95,0.1-1.36,0.29c-0.41,0.19-0.76,0.45-1.07,0.77c-0.31,0.32-0.57,0.68-0.79,1.07h-0.07l-0.17-1.94h-1.33V98.2h1.61
			v-5.65c0-0.54,0.08-1.04,0.24-1.49c0.16-0.45,0.38-0.83,0.66-1.14c0.28-0.32,0.61-0.56,0.99-0.73c0.37-0.17,0.77-0.26,1.2-0.26
			C494.66,88.93,494.85,88.94,495.07,88.96z"/>
		<path d="M504.79,88.06c-0.64-0.4-1.41-0.6-2.31-0.6c-0.94,0-1.76,0.22-2.46,0.67c-0.7,0.45-1.23,1.09-1.62,1.92
			c-0.38,0.83-0.57,1.81-0.57,2.95c0,1.16,0.21,2.14,0.62,2.94c0.42,0.8,1,1.41,1.75,1.82c0.75,0.41,1.64,0.62,2.65,0.62
			c0.71,0,1.33-0.05,1.85-0.16c0.52-0.11,1.05-0.28,1.58-0.52v-1.4c-0.55,0.24-1.08,0.42-1.6,0.54c-0.51,0.12-1.1,0.18-1.77,0.18
			c-1.08,0-1.92-0.32-2.52-0.97c-0.6-0.65-0.9-1.59-0.92-2.83h7.28v-0.99c0-0.95-0.17-1.79-0.51-2.5
			C505.92,89.01,505.43,88.46,504.79,88.06z M499.52,91.95c0.1-1,0.4-1.78,0.9-2.34c0.51-0.56,1.19-0.84,2.04-0.84
			c0.6,0,1.1,0.13,1.48,0.4c0.39,0.27,0.67,0.64,0.86,1.12c0.19,0.48,0.29,1.03,0.29,1.66H499.52z"/>
		<path d="M510.49,88.18c-0.72,0.48-1.08,1.16-1.08,2.05c0,0.58,0.13,1.06,0.4,1.42c0.27,0.36,0.64,0.67,1.13,0.93
			c0.49,0.25,1.07,0.51,1.75,0.76c0.68,0.25,1.21,0.48,1.59,0.69c0.39,0.21,0.66,0.42,0.82,0.64c0.16,0.22,0.24,0.48,0.24,0.76
			c0,0.51-0.21,0.91-0.61,1.2c-0.41,0.29-1.07,0.44-1.98,0.44c-0.62,0-1.23-0.09-1.83-0.26c-0.6-0.17-1.11-0.36-1.54-0.58v1.47
			c0.4,0.21,0.88,0.37,1.41,0.49c0.54,0.12,1.18,0.17,1.91,0.17c0.87,0,1.61-0.12,2.24-0.35c0.63-0.23,1.11-0.58,1.44-1.03
			c0.34-0.46,0.51-1.02,0.51-1.7c0-0.58-0.13-1.05-0.39-1.42c-0.26-0.37-0.63-0.68-1.11-0.94c-0.48-0.26-1.05-0.51-1.71-0.75
			c-0.66-0.25-1.19-0.47-1.59-0.65c-0.4-0.19-0.7-0.38-0.88-0.6c-0.18-0.21-0.27-0.48-0.27-0.81c0-0.42,0.2-0.76,0.59-1
			c0.39-0.24,0.96-0.36,1.7-0.36c0.51,0,1.02,0.06,1.51,0.19c0.49,0.13,0.96,0.29,1.39,0.47l0.54-1.28c-0.48-0.21-1-0.38-1.55-0.5
			c-0.56-0.13-1.15-0.19-1.78-0.19C512.16,87.46,511.21,87.7,510.49,88.18z"/>
		<path d="M525.3,98.16c0.42-0.15,0.78-0.35,1.09-0.61c0.3-0.26,0.56-0.54,0.75-0.86h0.07l0.24,1.5h1.29V83.23h-1.6v4.22
			c0,0.22,0.01,0.5,0.04,0.85c0.03,0.35,0.05,0.62,0.08,0.82h-0.12c-0.21-0.31-0.46-0.59-0.76-0.84c-0.3-0.25-0.66-0.44-1.08-0.59
			c-0.42-0.15-0.9-0.22-1.46-0.22c-1.32,0-2.38,0.46-3.17,1.39c-0.8,0.93-1.19,2.3-1.19,4.11c0,1.8,0.39,3.15,1.17,4.06
			c0.78,0.91,1.84,1.37,3.17,1.37C524.38,98.39,524.88,98.31,525.3,98.16z M521.86,96c-0.48-0.71-0.73-1.71-0.73-3
			c0-1.3,0.24-2.33,0.73-3.08c0.49-0.75,1.22-1.13,2.2-1.13c1.17,0,1.98,0.36,2.43,1.08c0.45,0.72,0.67,1.75,0.67,3.09v0.29
			c0,1.26-0.23,2.21-0.7,2.86c-0.47,0.64-1.27,0.96-2.4,0.96C523.08,97.06,522.34,96.71,521.86,96z"/>
		<path d="M539.08,88.06c-0.64-0.4-1.41-0.6-2.31-0.6c-0.94,0-1.76,0.22-2.46,0.67c-0.7,0.45-1.23,1.09-1.62,1.92
			c-0.38,0.83-0.57,1.81-0.57,2.95c0,1.16,0.21,2.14,0.62,2.94c0.42,0.8,1,1.41,1.75,1.82c0.75,0.41,1.64,0.62,2.65,0.62
			c0.71,0,1.33-0.05,1.85-0.16c0.52-0.11,1.05-0.28,1.58-0.52v-1.4c-0.55,0.24-1.08,0.42-1.6,0.54c-0.51,0.12-1.1,0.18-1.77,0.18
			c-1.08,0-1.92-0.32-2.52-0.97c-0.6-0.65-0.9-1.59-0.92-2.83h7.28v-0.99c0-0.95-0.17-1.79-0.51-2.5
			C540.21,89.01,539.72,88.46,539.08,88.06z M533.81,91.95c0.1-1,0.4-1.78,0.9-2.34c0.51-0.56,1.19-0.84,2.04-0.84
			c0.6,0,1.1,0.13,1.48,0.4c0.39,0.27,0.67,0.64,0.86,1.12c0.19,0.48,0.29,1.03,0.29,1.66H533.81z"/>
		<path d="M549.36,87.46c-0.47,0-0.93,0.07-1.36,0.2c-0.43,0.13-0.82,0.32-1.16,0.58c-0.35,0.25-0.63,0.57-0.86,0.94h-0.09
			l-0.24-1.52h-1.29V98.2h1.6v-5.52c0-1.26,0.24-2.21,0.71-2.88c0.47-0.66,1.29-0.99,2.46-0.99c0.83,0,1.44,0.22,1.84,0.65
			s0.6,1.09,0.6,1.97v6.76h1.58v-6.87c0-1.35-0.32-2.33-0.96-2.95C551.55,87.77,550.61,87.46,549.36,87.46z"/>
		<path d="M379.15,120.89c0,0.74-0.13,1.39-0.4,1.95c-0.27,0.56-0.67,1-1.22,1.31c-0.55,0.31-1.25,0.47-2.11,0.47
			c-1.26,0-2.2-0.32-2.83-0.97c-0.63-0.65-0.95-1.57-0.95-2.76v-9.11h-1.64v9.06c0,1.58,0.45,2.84,1.36,3.78
			c0.91,0.94,2.23,1.41,3.97,1.41c1.22,0,2.23-0.22,3.04-0.67c0.81-0.45,1.41-1.06,1.81-1.83c0.4-0.78,0.6-1.66,0.6-2.65v-9.1h-1.63
			V120.89z"/>
		<path d="M389.64,115.1c-0.47,0-0.93,0.07-1.36,0.2c-0.43,0.13-0.82,0.32-1.16,0.58c-0.35,0.25-0.63,0.57-0.86,0.94h-0.09
			l-0.24-1.52h-1.29v10.54h1.6v-5.52c0-1.26,0.24-2.21,0.71-2.88c0.47-0.66,1.29-0.99,2.46-0.99c0.83,0,1.44,0.22,1.84,0.65
			c0.4,0.44,0.6,1.09,0.6,1.97v6.76h1.58v-6.87c0-1.35-0.32-2.33-0.96-2.95C391.83,115.41,390.89,115.1,389.64,115.1z"/>
		<rect x="397.12" y="115.29" width="1.6" height="10.54"/>
		<path d="M397.94,111.35c-0.28,0-0.5,0.08-0.69,0.25c-0.18,0.17-0.27,0.43-0.27,0.79c0,0.35,0.09,0.62,0.27,0.79
			c0.18,0.17,0.41,0.26,0.69,0.26c0.26,0,0.49-0.09,0.68-0.26c0.19-0.17,0.28-0.44,0.28-0.79c0-0.36-0.09-0.62-0.28-0.79
			C398.42,111.44,398.2,111.35,397.94,111.35z"/>
		<path d="M406.61,121.67c-0.15,0.43-0.31,0.91-0.49,1.44c-0.18,0.53-0.31,0.95-0.38,1.27h-0.07c-0.06-0.32-0.18-0.74-0.35-1.27
			c-0.17-0.53-0.33-1.01-0.49-1.44l-2.32-6.38h-1.71l4,10.54h1.83l4.01-10.54h-1.71L406.61,121.67z"/>
		<path d="M419.08,115.7c-0.64-0.4-1.41-0.6-2.31-0.6c-0.94,0-1.76,0.22-2.46,0.67c-0.7,0.45-1.23,1.09-1.62,1.92
			c-0.38,0.83-0.57,1.81-0.57,2.95c0,1.16,0.21,2.14,0.62,2.94c0.42,0.8,1,1.41,1.75,1.82c0.75,0.41,1.64,0.62,2.65,0.62
			c0.71,0,1.33-0.05,1.85-0.16c0.52-0.11,1.05-0.28,1.58-0.52v-1.4c-0.55,0.24-1.08,0.42-1.6,0.54c-0.51,0.12-1.1,0.18-1.77,0.18
			c-1.08,0-1.92-0.32-2.52-0.97c-0.6-0.65-0.9-1.59-0.92-2.83h7.28v-0.99c0-0.95-0.17-1.79-0.51-2.5
			C420.21,116.65,419.72,116.09,419.08,115.7z M413.81,119.58c0.1-1,0.4-1.78,0.9-2.34c0.51-0.56,1.19-0.84,2.04-0.84
			c0.6,0,1.1,0.13,1.48,0.4c0.39,0.27,0.67,0.64,0.86,1.12c0.19,0.48,0.29,1.03,0.29,1.66H413.81z"/>
		<path d="M428.95,115.1c-0.5,0-0.95,0.1-1.36,0.29c-0.41,0.19-0.76,0.45-1.07,0.77c-0.31,0.32-0.57,0.68-0.79,1.07h-0.07
			l-0.17-1.94h-1.33v10.54h1.61v-5.65c0-0.54,0.08-1.04,0.24-1.49c0.16-0.45,0.38-0.83,0.66-1.14c0.28-0.32,0.61-0.56,0.99-0.73
			c0.37-0.17,0.77-0.26,1.2-0.26c0.19,0,0.38,0.01,0.6,0.04c0.21,0.03,0.4,0.06,0.58,0.11l0.2-1.48c-0.18-0.04-0.38-0.07-0.62-0.09
			C429.39,115.11,429.17,115.1,428.95,115.1z"/>
		<path d="M437.93,120.59c-0.48-0.26-1.05-0.51-1.71-0.75c-0.66-0.25-1.19-0.47-1.6-0.65c-0.4-0.19-0.7-0.38-0.88-0.6
			c-0.18-0.21-0.27-0.48-0.27-0.81c0-0.42,0.2-0.76,0.59-1c0.39-0.24,0.96-0.36,1.7-0.36c0.51,0,1.02,0.06,1.51,0.19
			c0.49,0.13,0.96,0.29,1.39,0.47l0.54-1.28c-0.48-0.21-1-0.38-1.55-0.5c-0.55-0.13-1.15-0.19-1.78-0.19
			c-1.17,0-2.12,0.24-2.84,0.72c-0.72,0.48-1.08,1.16-1.08,2.05c0,0.58,0.13,1.06,0.4,1.42c0.27,0.36,0.64,0.67,1.13,0.93
			c0.49,0.25,1.07,0.51,1.75,0.76c0.68,0.25,1.21,0.48,1.6,0.69c0.38,0.21,0.66,0.42,0.82,0.64c0.16,0.22,0.25,0.48,0.25,0.76
			c0,0.51-0.21,0.91-0.62,1.2c-0.41,0.29-1.07,0.44-1.98,0.44c-0.62,0-1.23-0.09-1.83-0.26c-0.6-0.17-1.11-0.36-1.54-0.58v1.47
			c0.4,0.21,0.88,0.38,1.41,0.49c0.54,0.12,1.18,0.17,1.91,0.17c0.87,0,1.61-0.12,2.24-0.35c0.62-0.23,1.11-0.58,1.44-1.03
			c0.34-0.46,0.5-1.02,0.5-1.7c0-0.58-0.13-1.05-0.39-1.42C438.78,121.16,438.41,120.85,437.93,120.59z"/>
		<rect x="442.39" y="115.29" width="1.6" height="10.54"/>
		<path d="M443.2,111.35c-0.28,0-0.5,0.08-0.69,0.25c-0.18,0.17-0.27,0.43-0.27,0.79c0,0.35,0.09,0.62,0.27,0.79
			c0.18,0.17,0.41,0.26,0.69,0.26c0.26,0,0.49-0.09,0.68-0.26c0.19-0.17,0.28-0.44,0.28-0.79c0-0.36-0.09-0.62-0.28-0.79
			C443.69,111.44,443.47,111.35,443.2,111.35z"/>
		<path d="M451.16,124.72c-0.51,0-0.91-0.16-1.22-0.49c-0.3-0.33-0.46-0.82-0.46-1.48v-6.2h3.09v-1.25h-3.09v-2.44h-0.96l-0.63,2.29
			l-1.51,0.62v0.78h1.5v6.25c0,0.83,0.14,1.47,0.41,1.94c0.27,0.47,0.64,0.8,1.09,1c0.45,0.2,0.96,0.29,1.52,0.29
			c0.31,0,0.64-0.03,0.97-0.09c0.33-0.06,0.59-0.13,0.77-0.21v-1.24c-0.17,0.06-0.4,0.12-0.67,0.16
			C451.69,124.69,451.42,124.72,451.16,124.72z"/>
		<path d="M459.42,121.4c-0.19,0.54-0.37,1.08-0.54,1.6c-0.17,0.52-0.29,0.94-0.38,1.26h-0.07c-0.05-0.28-0.12-0.57-0.21-0.88
			c-0.09-0.3-0.19-0.62-0.31-0.95c-0.12-0.33-0.24-0.67-0.37-1.03l-2.33-6.12h-1.71l4.22,10.56l-0.58,1.48
			c-0.15,0.4-0.34,0.74-0.55,1.03c-0.21,0.29-0.46,0.51-0.75,0.66c-0.29,0.15-0.64,0.23-1.03,0.23c-0.22,0-0.43-0.01-0.63-0.04
			c-0.2-0.03-0.37-0.05-0.51-0.09v1.28c0.17,0.04,0.37,0.09,0.6,0.12c0.23,0.04,0.5,0.05,0.8,0.05c0.65,0,1.21-0.13,1.67-0.39
			c0.46-0.26,0.85-0.63,1.18-1.11c0.32-0.48,0.61-1.05,0.85-1.69l4.59-12.09h-1.72L459.42,121.4z"/>
		<path d="M477.74,115.74c-0.72-0.43-1.56-0.64-2.52-0.64c-1.01,0-1.87,0.21-2.6,0.64c-0.73,0.43-1.29,1.05-1.68,1.86
			c-0.39,0.81-0.59,1.79-0.59,2.95c0,0.87,0.12,1.64,0.35,2.32c0.23,0.68,0.56,1.25,0.99,1.72c0.43,0.47,0.93,0.83,1.52,1.07
			c0.59,0.25,1.23,0.37,1.94,0.37c0.76,0,1.43-0.12,2.03-0.37c0.6-0.25,1.11-0.6,1.53-1.07c0.42-0.47,0.75-1.04,0.97-1.72
			c0.22-0.68,0.34-1.45,0.34-2.32c0-1.15-0.2-2.13-0.6-2.94C479.02,116.79,478.46,116.17,477.74,115.74z M478.03,122.74
			c-0.22,0.62-0.57,1.1-1.04,1.44c-0.47,0.34-1.07,0.51-1.8,0.51c-0.74,0-1.34-0.17-1.81-0.51c-0.47-0.34-0.81-0.82-1.04-1.44
			c-0.22-0.62-0.34-1.36-0.34-2.2c0-1.28,0.26-2.29,0.76-3.01c0.51-0.72,1.31-1.09,2.41-1.09c0.74,0,1.35,0.17,1.82,0.5
			c0.47,0.33,0.81,0.81,1.04,1.42c0.22,0.61,0.34,1.34,0.34,2.18C478.37,121.39,478.25,122.12,478.03,122.74z"/>
		<path d="M487.01,110.76c-0.72,0-1.33,0.13-1.83,0.39c-0.5,0.26-0.88,0.67-1.14,1.23c-0.26,0.55-0.39,1.27-0.39,2.16v0.7
			l-1.87,0.53v0.77h1.87v9.29h1.6v-9.29h2.63v-1.25h-2.63v-0.77c0-0.84,0.15-1.46,0.44-1.85c0.29-0.39,0.74-0.59,1.35-0.59
			c0.28,0,0.56,0.03,0.83,0.09c0.27,0.06,0.52,0.13,0.74,0.2l0.41-1.26c-0.26-0.09-0.55-0.17-0.89-0.24
			C487.79,110.8,487.42,110.76,487.01,110.76z"/>
		<path d="M499.52,111.72l-5.5,14.12h1.65l1.72-4.46h5.63l1.73,4.46h1.69l-5.46-14.12H499.52z M497.94,119.92l1.67-4.43
			c0.05-0.15,0.11-0.34,0.18-0.56c0.07-0.22,0.14-0.46,0.22-0.72c0.07-0.26,0.14-0.52,0.21-0.78c0.06,0.17,0.13,0.4,0.22,0.68
			c0.09,0.28,0.18,0.55,0.26,0.82c0.09,0.26,0.15,0.45,0.19,0.57l1.64,4.43H497.94z"/>
		<path d="M513.5,115.1c-0.58,0-1.09,0.08-1.51,0.24c-0.43,0.16-0.79,0.37-1.08,0.63c-0.3,0.27-0.55,0.56-0.75,0.88h-0.08
			l-0.21-1.56h-1.32v15.25h1.61v-4.33c0-0.26-0.01-0.57-0.04-0.92c-0.03-0.35-0.05-0.65-0.07-0.9h0.12c0.2,0.3,0.45,0.57,0.75,0.82
			c0.3,0.25,0.66,0.45,1.09,0.6c0.42,0.15,0.91,0.22,1.47,0.22c0.89,0,1.65-0.21,2.3-0.63c0.65-0.42,1.16-1.03,1.52-1.85
			c0.36-0.81,0.54-1.82,0.54-3.02c0-1.81-0.39-3.17-1.18-4.08C515.86,115.55,514.82,115.1,513.5,115.1z M515.85,122.69
			c-0.21,0.63-0.54,1.12-0.98,1.48c-0.44,0.35-0.98,0.53-1.63,0.53c-0.76,0-1.37-0.16-1.82-0.48c-0.45-0.32-0.77-0.79-0.97-1.4
			c-0.2-0.62-0.29-1.37-0.29-2.26v-0.31c0.01-0.85,0.12-1.55,0.33-2.11c0.2-0.56,0.53-0.98,0.98-1.26c0.45-0.28,1.03-0.42,1.76-0.42
			c1,0,1.74,0.37,2.23,1.1c0.48,0.73,0.73,1.72,0.73,2.97C516.17,121.33,516.07,122.06,515.85,122.69z"/>
		<path d="M525.94,115.1c-0.58,0-1.09,0.08-1.51,0.24c-0.43,0.16-0.79,0.37-1.08,0.63c-0.3,0.27-0.55,0.56-0.75,0.88h-0.08
			l-0.21-1.56h-1.32v15.25h1.61v-4.33c0-0.26-0.01-0.57-0.04-0.92c-0.03-0.35-0.05-0.65-0.07-0.9h0.12c0.2,0.3,0.45,0.57,0.75,0.82
			c0.3,0.25,0.66,0.45,1.09,0.6c0.42,0.15,0.91,0.22,1.47,0.22c0.89,0,1.65-0.21,2.3-0.63c0.65-0.42,1.16-1.03,1.51-1.85
			c0.36-0.81,0.54-1.82,0.54-3.02c0-1.81-0.39-3.17-1.17-4.08C528.31,115.55,527.26,115.1,525.94,115.1z M528.29,122.69
			c-0.21,0.63-0.54,1.12-0.98,1.48c-0.44,0.35-0.98,0.53-1.63,0.53c-0.76,0-1.37-0.16-1.82-0.48c-0.45-0.32-0.78-0.79-0.97-1.4
			c-0.2-0.62-0.29-1.37-0.29-2.26v-0.31c0.01-0.85,0.12-1.55,0.33-2.11s0.53-0.98,0.98-1.26c0.44-0.28,1.03-0.42,1.76-0.42
			c1,0,1.74,0.37,2.23,1.1c0.48,0.73,0.73,1.72,0.73,2.97C528.62,121.33,528.51,122.06,528.29,122.69z"/>
		<rect x="533.43" y="110.87" width="1.61" height="14.96"/>
		<rect x="538.8" y="115.29" width="1.6" height="10.54"/>
		<path d="M539.62,111.35c-0.28,0-0.5,0.08-0.69,0.25c-0.18,0.17-0.27,0.43-0.27,0.79c0,0.35,0.09,0.62,0.27,0.79
			c0.18,0.17,0.41,0.26,0.69,0.26c0.26,0,0.49-0.09,0.68-0.26c0.19-0.17,0.28-0.44,0.28-0.79c0-0.36-0.09-0.62-0.28-0.79
			C540.11,111.44,539.88,111.35,539.62,111.35z"/>
		<path d="M550.53,115.7c-0.64-0.4-1.41-0.6-2.31-0.6c-0.94,0-1.76,0.22-2.46,0.67c-0.7,0.45-1.23,1.09-1.62,1.92
			c-0.38,0.83-0.57,1.81-0.57,2.95c0,1.16,0.21,2.14,0.62,2.94c0.42,0.8,1,1.41,1.76,1.82c0.75,0.41,1.64,0.62,2.65,0.62
			c0.71,0,1.33-0.05,1.85-0.16c0.52-0.11,1.05-0.28,1.58-0.52v-1.4c-0.55,0.24-1.08,0.42-1.6,0.54c-0.51,0.12-1.1,0.18-1.77,0.18
			c-1.08,0-1.92-0.32-2.52-0.97c-0.6-0.65-0.9-1.59-0.92-2.83h7.28v-0.99c0-0.95-0.17-1.79-0.51-2.5
			C551.66,116.65,551.17,116.09,550.53,115.7z M545.26,119.58c0.1-1,0.4-1.78,0.9-2.34c0.51-0.56,1.19-0.84,2.04-0.84
			c0.6,0,1.1,0.13,1.48,0.4c0.39,0.27,0.67,0.64,0.86,1.12c0.19,0.48,0.29,1.03,0.29,1.66H545.26z"/>
		<path d="M562.69,115.09c0,0.22,0.01,0.5,0.04,0.85c0.03,0.35,0.05,0.62,0.08,0.82h-0.12c-0.21-0.31-0.46-0.59-0.76-0.84
			c-0.3-0.25-0.66-0.44-1.08-0.59c-0.42-0.15-0.9-0.22-1.46-0.22c-1.32,0-2.38,0.46-3.17,1.39c-0.8,0.93-1.19,2.3-1.19,4.11
			c0,1.8,0.39,3.15,1.17,4.06c0.78,0.91,1.84,1.37,3.17,1.37c0.57,0,1.07-0.08,1.49-0.23c0.42-0.15,0.78-0.35,1.09-0.61
			c0.3-0.26,0.56-0.54,0.75-0.86h0.07l0.24,1.5h1.29v-14.96h-1.6V115.09z M562.71,120.88c0,1.26-0.23,2.21-0.7,2.86
			c-0.47,0.64-1.27,0.96-2.4,0.96c-0.99,0-1.72-0.35-2.21-1.06s-0.73-1.71-0.73-3c0-1.3,0.24-2.33,0.73-3.08
			c0.49-0.75,1.22-1.13,2.2-1.13c1.17,0,1.98,0.36,2.43,1.08c0.45,0.72,0.67,1.75,0.67,3.09V120.88z"/>
		<path d="M579.97,119.02c-0.58-0.34-1.28-0.66-2.11-0.96c-0.76-0.28-1.36-0.54-1.82-0.79c-0.46-0.25-0.79-0.54-1-0.87
			c-0.21-0.33-0.31-0.74-0.31-1.23c0-0.44,0.11-0.82,0.33-1.14c0.22-0.32,0.53-0.57,0.95-0.75c0.41-0.18,0.92-0.26,1.52-0.26
			c0.6,0,1.19,0.07,1.76,0.21c0.57,0.14,1.1,0.32,1.61,0.53l0.51-1.4c-0.53-0.24-1.12-0.43-1.76-0.57
			c-0.64-0.14-1.33-0.21-2.08-0.21c-0.88,0-1.66,0.14-2.33,0.43c-0.68,0.29-1.2,0.7-1.59,1.23c-0.38,0.54-0.57,1.18-0.57,1.93
			c0,0.55,0.08,1.03,0.24,1.45c0.16,0.42,0.39,0.79,0.7,1.12c0.31,0.32,0.69,0.61,1.14,0.86c0.45,0.25,0.98,0.49,1.58,0.7
			c0.85,0.3,1.51,0.58,2.01,0.85c0.49,0.27,0.84,0.56,1.05,0.88c0.21,0.32,0.32,0.73,0.32,1.21c0,0.5-0.13,0.93-0.38,1.28
			c-0.25,0.36-0.62,0.63-1.11,0.82c-0.49,0.19-1.08,0.28-1.79,0.28c-0.76,0-1.48-0.09-2.17-0.26c-0.69-0.17-1.28-0.35-1.76-0.55
			v1.57c0.3,0.14,0.65,0.26,1.05,0.36c0.4,0.1,0.83,0.17,1.31,0.22c0.47,0.05,0.98,0.08,1.51,0.08c1.01,0,1.88-0.15,2.62-0.46
			c0.74-0.31,1.32-0.75,1.74-1.34c0.41-0.59,0.62-1.3,0.62-2.13c0-0.74-0.15-1.36-0.45-1.84
			C580.99,119.77,580.55,119.36,579.97,119.02z"/>
		<path d="M587.27,116.97c0.48-0.31,1.09-0.47,1.82-0.47c0.37,0,0.76,0.05,1.18,0.15c0.42,0.1,0.79,0.22,1.11,0.35l0.48-1.34
			c-0.31-0.16-0.72-0.29-1.21-0.4c-0.49-0.11-1-0.16-1.52-0.16c-0.95,0-1.81,0.2-2.56,0.59c-0.75,0.39-1.34,0.99-1.76,1.8
			c-0.43,0.81-0.64,1.85-0.64,3.13c0,1.22,0.2,2.23,0.61,3.03c0.4,0.8,0.97,1.4,1.69,1.79c0.72,0.39,1.56,0.59,2.51,0.59
			c0.6,0,1.11-0.05,1.54-0.14c0.43-0.1,0.83-0.23,1.18-0.41v-1.42c-0.36,0.16-0.77,0.3-1.22,0.42c-0.45,0.12-0.95,0.18-1.51,0.18
			c-0.7,0-1.28-0.16-1.75-0.48c-0.47-0.32-0.81-0.78-1.05-1.38c-0.23-0.6-0.35-1.33-0.35-2.18c0-0.89,0.12-1.64,0.36-2.25
			C586.43,117.74,586.79,117.28,587.27,116.97z"/>
		<rect x="594.59" y="115.29" width="1.6" height="10.54"/>
		<path d="M595.4,111.35c-0.28,0-0.5,0.08-0.69,0.25c-0.18,0.17-0.27,0.43-0.27,0.79c0,0.35,0.09,0.62,0.27,0.79
			c0.18,0.17,0.41,0.26,0.69,0.26c0.26,0,0.49-0.09,0.68-0.26c0.19-0.17,0.28-0.44,0.28-0.79c0-0.36-0.09-0.62-0.28-0.79
			C595.89,111.44,595.67,111.35,595.4,111.35z"/>
		<path d="M606.32,115.7c-0.64-0.4-1.41-0.6-2.31-0.6c-0.94,0-1.76,0.22-2.46,0.67c-0.7,0.45-1.23,1.09-1.62,1.92
			c-0.38,0.83-0.57,1.81-0.57,2.95c0,1.16,0.21,2.14,0.62,2.94c0.42,0.8,1,1.41,1.76,1.82c0.75,0.41,1.64,0.62,2.65,0.62
			c0.71,0,1.33-0.05,1.85-0.16c0.52-0.11,1.05-0.28,1.58-0.52v-1.4c-0.55,0.24-1.08,0.42-1.6,0.54c-0.51,0.12-1.1,0.18-1.77,0.18
			c-1.08,0-1.92-0.32-2.52-0.97c-0.6-0.65-0.9-1.59-0.92-2.83h7.28v-0.99c0-0.95-0.17-1.79-0.51-2.5
			C607.45,116.65,606.96,116.09,606.32,115.7z M601.05,119.58c0.1-1,0.4-1.78,0.9-2.34c0.51-0.56,1.19-0.84,2.04-0.84
			c0.6,0,1.1,0.13,1.48,0.4c0.39,0.27,0.67,0.64,0.86,1.12c0.19,0.48,0.29,1.03,0.29,1.66H601.05z"/>
		<path d="M616.39,115.1c-0.47,0-0.93,0.07-1.36,0.2c-0.43,0.13-0.82,0.32-1.16,0.58c-0.35,0.25-0.63,0.57-0.86,0.94h-0.09
			l-0.24-1.52h-1.29v10.54h1.6v-5.52c0-1.26,0.24-2.21,0.71-2.88c0.47-0.66,1.29-0.99,2.46-0.99c0.83,0,1.44,0.22,1.84,0.65
			c0.4,0.44,0.6,1.09,0.6,1.97v6.76h1.58v-6.87c0-1.35-0.32-2.33-0.96-2.95C618.59,115.41,617.64,115.1,616.39,115.1z"/>
		<path d="M626.39,116.97c0.48-0.31,1.09-0.47,1.82-0.47c0.37,0,0.76,0.05,1.18,0.15c0.42,0.1,0.79,0.22,1.11,0.35l0.48-1.34
			c-0.31-0.16-0.72-0.29-1.21-0.4c-0.49-0.11-1-0.16-1.52-0.16c-0.95,0-1.81,0.2-2.56,0.59c-0.75,0.39-1.34,0.99-1.76,1.8
			c-0.43,0.81-0.64,1.85-0.64,3.13c0,1.22,0.2,2.23,0.61,3.03c0.4,0.8,0.97,1.4,1.69,1.79c0.72,0.39,1.56,0.59,2.51,0.59
			c0.6,0,1.11-0.05,1.54-0.14c0.43-0.1,0.83-0.23,1.18-0.41v-1.42c-0.36,0.16-0.77,0.3-1.22,0.42c-0.45,0.12-0.95,0.18-1.51,0.18
			c-0.7,0-1.28-0.16-1.75-0.48c-0.47-0.32-0.81-0.78-1.05-1.38c-0.23-0.6-0.35-1.33-0.35-2.18c0-0.89,0.12-1.64,0.36-2.25
			C625.54,117.74,625.9,117.28,626.39,116.97z"/>
		<path d="M640.06,115.7c-0.64-0.4-1.41-0.6-2.31-0.6c-0.94,0-1.76,0.22-2.46,0.67c-0.7,0.45-1.23,1.09-1.62,1.92
			c-0.38,0.83-0.57,1.81-0.57,2.95c0,1.16,0.21,2.14,0.62,2.94c0.42,0.8,1,1.41,1.76,1.82c0.75,0.41,1.64,0.62,2.65,0.62
			c0.71,0,1.33-0.05,1.85-0.16c0.52-0.11,1.05-0.28,1.58-0.52v-1.4c-0.55,0.24-1.08,0.42-1.6,0.54c-0.51,0.12-1.1,0.18-1.77,0.18
			c-1.08,0-1.92-0.32-2.52-0.97c-0.6-0.65-0.9-1.59-0.92-2.83h7.28v-0.99c0-0.95-0.17-1.79-0.51-2.5
			C641.2,116.65,640.71,116.09,640.06,115.7z M634.8,119.58c0.1-1,0.4-1.78,0.9-2.34c0.51-0.56,1.19-0.84,2.04-0.84
			c0.6,0,1.1,0.13,1.48,0.4c0.38,0.27,0.67,0.64,0.86,1.12c0.19,0.48,0.29,1.03,0.29,1.66H634.8z"/>
		<path d="M651.58,121.53c-0.26-0.37-0.63-0.68-1.11-0.94c-0.48-0.26-1.05-0.51-1.71-0.75c-0.66-0.25-1.19-0.47-1.6-0.65
			c-0.4-0.19-0.7-0.38-0.88-0.6c-0.18-0.21-0.27-0.48-0.27-0.81c0-0.42,0.2-0.76,0.59-1c0.39-0.24,0.96-0.36,1.7-0.36
			c0.51,0,1.02,0.06,1.51,0.19c0.49,0.13,0.96,0.29,1.39,0.47l0.54-1.28c-0.48-0.21-1-0.38-1.55-0.5c-0.55-0.13-1.15-0.19-1.78-0.19
			c-1.17,0-2.12,0.24-2.84,0.72c-0.72,0.48-1.08,1.16-1.08,2.05c0,0.58,0.13,1.06,0.4,1.42c0.27,0.36,0.64,0.67,1.13,0.93
			c0.49,0.25,1.07,0.51,1.75,0.76c0.68,0.25,1.21,0.48,1.6,0.69c0.39,0.21,0.66,0.42,0.82,0.64c0.16,0.22,0.25,0.48,0.25,0.76
			c0,0.51-0.21,0.91-0.61,1.2c-0.41,0.29-1.07,0.44-1.98,0.44c-0.62,0-1.23-0.09-1.83-0.26c-0.6-0.17-1.11-0.36-1.54-0.58v1.47
			c0.4,0.21,0.87,0.38,1.41,0.49c0.54,0.12,1.18,0.17,1.91,0.17c0.87,0,1.61-0.12,2.24-0.35c0.63-0.23,1.11-0.58,1.44-1.03
			c0.34-0.46,0.51-1.02,0.51-1.7C651.97,122.37,651.84,121.9,651.58,121.53z"/>
	</g>
</g>
</svg>
